<svg id="muddy_cwtch_logo" xmlns="http://www.w3.org/2000/svg" viewBox="0 0 1538 560"><style>.st0{fill:#6EC4E9;} .st1{fill:#3FAE2A;} .st2{fill:#00953A;} .st3{fill:#00833E;} .st4{fill:#FFDF00;}</style><path id="Cloud" class="st0" d="M665.5 188.8c-5.7 0-11.3.5-16.7 1.6.5-4.4.7-8.9.7-13.4 0-67.4-54.7-122.1-122.1-122.1-60.9 0-111.3 44.5-120.6 102.8-9.7-2.8-20-4.4-30.6-4.4-59.9 0-108.5 48-108.5 107.9 0 59.9 48.6 107.9 108.5 107.9h289.2c50.1 0 90.7-40 90.7-90.1.1-50.2-40.5-90.2-90.6-90.2z"/><path id="Mountain_1_" class="st1" d="M469.6.9l-128 280.6L223.7 69 0 560h780z"/><path class="st2" d="M214.6 560H496L341.6 281.5z"/><path class="st2" d="M673.7 368.6L501.1 57.7c-48.6 10.7-86.4 50.3-94.3 99.9-2.6-.8-5.2-1.4-7.9-2l-57.4 125.9-49.3-88.8c-15.3 18.6-24.5 42.4-24.5 68.4 0 59.9 48.6 107.9 108.5 107.9h289.2c2.9 0 5.6-.1 8.3-.4z"/><path class="st3" d="M311.4 347.7c18.1 13.4 40.6 21.3 64.9 21.3h13.8l-48.5-87.5-30.2 66.2z"/><path id="Sun" class="st4" d="M616.2 70.2c-6.1-4.6-12.7-8.5-19.7-11.8l-4.3-52.1h29.4l-5.4 63.9zm26.2 26.6l48.9-41.4-20.8-20.8L630 82.5c3.4 3.6 6.5 7.3 9.4 11.3l3 3zm67.5 41.8v-29.4l-59 4.9c2.8 6.4 5 13.1 6.5 20.1l52.5 4.4z"/><path id="Tree" class="st3" d="M598.3 405.6L535 530h52l1 30h20l1-30h52.6z"/><path id="Tree_1_" class="st3" d="M160 353.5L112 451h40l1 23h14l1-23h40z"/><path id="Name" d="M807.1 376.6l21.6-128.5c.2-1.7 1.9-3.1 3.4-3.1h3.1c1 0 2.7.5 3.2 1.7l44.4 82.3h.4l44.3-82.3c.6-1.1 2.3-1.7 3.3-1.7h3.1c1.5 0 3.3 1.3 3.4 3l21.6 128.6c.4 2.5-1.3 4.4-3.6 4.4h-22.6c-1.7 0-3.4-1.5-3.6-3l-8.6-59h-.5l-32.1 61.4c-.6 1.1-2.3 1.6-3.3 1.6h-3.4c-1.1 0-2.7-.4-3.2-1.6L845.7 319h-.4l-8.4 59c-.2 1.5-1.7 3-3.6 3h-22.6c-2.3 0-4-1.9-3.6-4.4zm212.7 6.4c30.2 0 55.2-24.1 55.2-53.1V251c0-1.9-2.1-3.9-4-3.9h-23.5c-2.1 0-3.4 2-3.4 3.9v77.4c0 13.4-9.9 24.1-23.7 24.1-13.6 0-23.3-10.7-23.3-24.1V251c0-1.9-2.1-3.9-4.2-3.9h-23.5c-1.9 0-4.3 2-4.3 3.9v78.9c-.1 29 24.7 53.1 54.7 53.1zm68.2-5.6V250.9c0-1.9 1.1-3.9 3.1-3.9h46.6c36.9 0 67.1 30.1 67.1 66.8 0 37.1-30.2 67.2-67.1 67.2h-46.6c-2 0-3.1-1.7-3.1-3.6zm30-24.4h17.8c21.6 0 37.3-17.3 37.3-39.1 0-21.6-15.7-38.9-37.3-38.9H1118v78zm217-39.2c0 37.1-30.2 67.2-67.1 67.2h-46.6c-1.9 0-3.3-1.7-3.3-3.6V250.9c0-1.9 1.4-3.9 3.3-3.9h46.6c36.9 0 67.1 30.1 67.1 66.8zm-31.7.1c0-21.6-15.7-38.9-37.3-38.9h-18v78h18c21.6 0 37.3-17.3 37.3-39.1zm135-66.9h-24.8c-1.7 0-2.5 1.1-3.1 1.8l-26.6 39.2-26.6-39.3c-.6-.8-1.5-1.8-3.1-1.8h-24.8c-3.1 0-4.4 3.2-2.8 5.7l42.5 64v60.8c0 1.9 1.1 3.6 3.2 3.6h22.7c1.9 0 4-1.7 4-3.6v-61l42.6-63.8c1.6-2.4-.1-5.6-3.2-5.6zM877 449.2c9.4 0 18.7 3.4 25.8 9.7 1.3 1.3 3.4 1.3 4.8 0l14.9-15.5c1.5-1.5 1.5-3.8-.2-5.4-13-11.9-27.1-17.8-46.3-17.8-38.2 0-69 30.8-69 69s30.8 68.6 69 68.6c17 0 33.5-5.9 46.4-18.5 1.3-1.3 1.5-3.8.2-5.2l-14.9-15.9c-1.1-1.3-3.6-1.3-5-.2-6.9 5.9-16.6 9.2-25.6 9.2-21.6 0-37.7-17.6-37.7-38.8.1-21.2 16-39.2 37.6-39.2zm210.5-27.2h-22.4c-1.5 0-3.1 1.6-3.4 2.9l-16.4 65.1h-.8l-29.6-67.1c-.4-1.1-1.5-1.9-3.3-1.9h-3.4c-1.5 0-2.7.8-3.3 1.9L975.3 490h-.8l-16.4-65.1c-.4-1.3-1.9-2.9-3.4-2.9h-22.4c-2.7 0-4.2 2-3.4 4.7L965 555.2c.4 1.5 1.9 2.8 3.4 2.8h3.1c1.3 0 2.7-.8 3.2-2l34.8-78h.6l35 78c.6 1.1 1.9 2 3.3 2h3.1c1.5 0 3.1-1.2 3.4-2.7l36.1-128.6c.7-2.7-.9-4.7-3.5-4.7zm97.7 0h-84.9c-2.1 0-3.3 2-3.3 3.9v20.8c0 1.9 1.2 3.3 3.3 3.3h27.7v102.4c0 1.9 1.4 3.6 3.3 3.6h22.9c1.9 0 3.8-1.7 3.8-3.6V450h27.2c2.1 0 3.8-1.4 3.8-3.3v-20.8c0-1.9-1.7-3.9-3.8-3.9zm73.7 27.2c9.4 0 18.7 3.4 25.8 9.7 1.3 1.3 3.4 1.3 4.8 0l14.9-15.5c1.5-1.5 1.5-3.8-.2-5.4-13-11.9-27.1-17.8-46.3-17.8-38.2 0-69 30.8-69 69s30.8 68.6 69 68.6c17 0 33.5-5.9 46.4-18.5 1.3-1.3 1.5-3.8.2-5.2l-14.9-15.9c-1.1-1.3-3.6-1.3-5-.2-6.9 5.9-16.6 9.2-25.6 9.2-21.6 0-37.7-17.6-37.7-38.8.2-21.2 16-39.2 37.6-39.2zm172.5-27.2h-22.7c-2.1 0-3.6 2-3.6 3.9V474h-54v-48.1c0-1.9-2.2-3.9-4.3-3.9H1324c-1.9 0-3.9 2-3.9 3.9v126.5c0 1.9 2 3.6 3.9 3.6h22.8c2.1 0 4.3-1.7 4.3-3.6V502h54v50.4c0 1.9 1.5 3.6 3.6 3.6h22.7c1.9 0 3.6-1.7 3.6-3.6V425.9c0-1.9-1.7-3.9-3.6-3.9z"/></svg>